<svg id="visual" viewBox="0 0 900 600" width="900" height="600" xmlns="http://www.w3.org/2000/svg" xmlns:xlink="http://www.w3.org/1999/xlink" version="1.1"><rect x="0" y="0" width="900" height="600" fill="#0F0E0F"></rect><path d="M0 219L11.5 220.3C23 221.7 46 224.3 69 232.3C92 240.3 115 253.7 138.2 254.2C161.3 254.7 184.7 242.3 207.8 243.8C231 245.3 254 260.7 277 260.7C300 260.7 323 245.3 346 240.7C369 236 392 242 415.2 247.8C438.3 253.7 461.7 259.3 484.8 267.8C508 276.3 531 287.7 554 281.5C577 275.3 600 251.7 623 249C646 246.3 669 264.7 692.2 272.7C715.3 280.7 738.7 278.3 761.8 271.3C785 264.3 808 252.7 831 251C854 249.3 877 257.7 888.5 261.8L900 266L900 601L888.5 601C877 601 854 601 831 601C808 601 785 601 761.8 601C738.7 601 715.3 601 692.2 601C669 601 646 601 623 601C600 601 577 601 554 601C531 601 508 601 484.8 601C461.7 601 438.3 601 415.2 601C392 601 369 601 346 601C323 601 300 601 277 601C254 601 231 601 207.8 601C184.7 601 161.3 601 138.2 601C115 601 92 601 69 601C46 601 23 601 11.5 601L0 601Z" fill="#252524"></path><path d="M0 282L11.5 285.7C23 289.3 46 296.7 69 303.2C92 309.7 115 315.3 138.2 305C161.3 294.7 184.7 268.3 207.8 260.7C231 253 254 264 277 264.8C300 265.7 323 256.3 346 258.3C369 260.3 392 273.7 415.2 281.2C438.3 288.7 461.7 290.3 484.8 284.5C508 278.7 531 265.3 554 270.3C577 275.3 600 298.7 623 310.8C646 323 669 324 692.2 324.7C715.3 325.3 738.7 325.7 761.8 314.8C785 304 808 282 831 268C854 254 877 248 888.5 245L900 242L900 601L888.5 601C877 601 854 601 831 601C808 601 785 601 761.8 601C738.7 601 715.3 601 692.2 601C669 601 646 601 623 601C600 601 577 601 554 601C531 601 508 601 484.8 601C461.7 601 438.3 601 415.2 601C392 601 369 601 346 601C323 601 300 601 277 601C254 601 231 601 207.8 601C184.7 601 161.3 601 138.2 601C115 601 92 601 69 601C46 601 23 601 11.5 601L0 601Z" fill="#373732"></path><path d="M0 331L11.5 327.3C23 323.7 46 316.3 69 313.5C92 310.7 115 312.3 138.2 317C161.3 321.7 184.7 329.3 207.8 329.7C231 330 254 323 277 322.8C300 322.7 323 329.3 346 325.5C369 321.7 392 307.3 415.2 304.2C438.3 301 461.7 309 484.8 310.7C508 312.3 531 307.7 554 310.5C577 313.3 600 323.7 623 329C646 334.3 669 334.7 692.2 339.2C715.3 343.7 738.7 352.3 761.8 357C785 361.7 808 362.3 831 350.7C854 339 877 315 888.5 303L900 291L900 601L888.5 601C877 601 854 601 831 601C808 601 785 601 761.8 601C738.7 601 715.3 601 692.2 601C669 601 646 601 623 601C600 601 577 601 554 601C531 601 508 601 484.8 601C461.7 601 438.3 601 415.2 601C392 601 369 601 346 601C323 601 300 601 277 601C254 601 231 601 207.8 601C184.7 601 161.3 601 138.2 601C115 601 92 601 69 601C46 601 23 601 11.5 601L0 601Z" fill="#4b4a41"></path><path d="M0 362L11.5 363.8C23 365.7 46 369.3 69 374.7C92 380 115 387 138.2 389.2C161.3 391.3 184.7 388.7 207.8 381.3C231 374 254 362 277 359.7C300 357.3 323 364.7 346 361.7C369 358.7 392 345.3 415.2 344.7C438.3 344 461.7 356 484.8 362.7C508 369.3 531 370.7 554 371.5C577 372.3 600 372.7 623 368.7C646 364.7 669 356.3 692.2 355.3C715.3 354.3 738.7 360.7 761.8 362C785 363.3 808 359.7 831 355.3C854 351 877 346 888.5 343.5L900 341L900 601L888.5 601C877 601 854 601 831 601C808 601 785 601 761.8 601C738.7 601 715.3 601 692.2 601C669 601 646 601 623 601C600 601 577 601 554 601C531 601 508 601 484.8 601C461.7 601 438.3 601 415.2 601C392 601 369 601 346 601C323 601 300 601 277 601C254 601 231 601 207.8 601C184.7 601 161.3 601 138.2 601C115 601 92 601 69 601C46 601 23 601 11.5 601L0 601Z" fill="#605d51"></path><path d="M0 375L11.5 373.5C23 372 46 369 69 377.3C92 385.7 115 405.3 138.2 411.3C161.3 417.3 184.7 409.7 207.8 405C231 400.3 254 398.7 277 397.5C300 396.3 323 395.7 346 392.3C369 389 392 383 415.2 382.5C438.3 382 461.7 387 484.8 391.2C508 395.3 531 398.7 554 395.3C577 392 600 382 623 378.2C646 374.3 669 376.7 692.2 385.3C715.3 394 738.7 409 761.8 415C785 421 808 418 831 411.7C854 405.3 877 395.7 888.5 390.8L900 386L900 601L888.5 601C877 601 854 601 831 601C808 601 785 601 761.8 601C738.7 601 715.3 601 692.2 601C669 601 646 601 623 601C600 601 577 601 554 601C531 601 508 601 484.8 601C461.7 601 438.3 601 415.2 601C392 601 369 601 346 601C323 601 300 601 277 601C254 601 231 601 207.8 601C184.7 601 161.3 601 138.2 601C115 601 92 601 69 601C46 601 23 601 11.5 601L0 601Z" fill="#767161"></path><path d="M0 451L11.5 445.5C23 440 46 429 69 422.2C92 415.3 115 412.7 138.2 412C161.3 411.3 184.7 412.7 207.8 419.5C231 426.3 254 438.7 277 440C300 441.3 323 431.7 346 426C369 420.3 392 418.7 415.2 423.5C438.3 428.3 461.7 439.7 484.8 441.5C508 443.3 531 435.7 554 434.8C577 434 600 440 623 442.8C646 445.7 669 445.3 692.2 445.8C715.3 446.3 738.7 447.7 761.8 444.2C785 440.7 808 432.3 831 427.5C854 422.7 877 421.3 888.5 420.7L900 420L900 601L888.5 601C877 601 854 601 831 601C808 601 785 601 761.8 601C738.7 601 715.3 601 692.2 601C669 601 646 601 623 601C600 601 577 601 554 601C531 601 508 601 484.8 601C461.7 601 438.3 601 415.2 601C392 601 369 601 346 601C323 601 300 601 277 601C254 601 231 601 207.8 601C184.7 601 161.3 601 138.2 601C115 601 92 601 69 601C46 601 23 601 11.5 601L0 601Z" fill="#8e8571"></path><path d="M0 472L11.5 472C23 472 46 472 69 474.3C92 476.7 115 481.3 138.2 481.5C161.3 481.7 184.7 477.3 207.8 471.5C231 465.7 254 458.3 277 460.5C300 462.7 323 474.3 346 478.5C369 482.7 392 479.3 415.2 473.2C438.3 467 461.7 458 484.8 456.3C508 454.7 531 460.3 554 462.2C577 464 600 462 623 465.2C646 468.3 669 476.7 692.2 479.7C715.3 482.7 738.7 480.3 761.8 475.3C785 470.3 808 462.7 831 459.8C854 457 877 459 888.5 460L900 461L900 601L888.5 601C877 601 854 601 831 601C808 601 785 601 761.8 601C738.7 601 715.3 601 692.2 601C669 601 646 601 623 601C600 601 577 601 554 601C531 601 508 601 484.8 601C461.7 601 438.3 601 415.2 601C392 601 369 601 346 601C323 601 300 601 277 601C254 601 231 601 207.8 601C184.7 601 161.3 601 138.2 601C115 601 92 601 69 601C46 601 23 601 11.5 601L0 601Z" fill="#a69a82"></path><path d="M0 515L11.5 511C23 507 46 499 69 498.2C92 497.3 115 503.7 138.2 504.3C161.3 505 184.7 500 207.8 498C231 496 254 497 277 495.8C300 494.7 323 491.3 346 491C369 490.7 392 493.3 415.2 493C438.3 492.7 461.7 489.3 484.8 488.8C508 488.3 531 490.7 554 490.8C577 491 600 489 623 489.7C646 490.3 669 493.7 692.2 493.7C715.3 493.7 738.7 490.3 761.8 493.5C785 496.7 808 506.3 831 509.8C854 513.3 877 510.7 888.5 509.3L900 508L900 601L888.5 601C877 601 854 601 831 601C808 601 785 601 761.8 601C738.7 601 715.3 601 692.2 601C669 601 646 601 623 601C600 601 577 601 554 601C531 601 508 601 484.8 601C461.7 601 438.3 601 415.2 601C392 601 369 601 346 601C323 601 300 601 277 601C254 601 231 601 207.8 601C184.7 601 161.3 601 138.2 601C115 601 92 601 69 601C46 601 23 601 11.5 601L0 601Z" fill="#c0af94"></path><path d="M0 538L11.5 538.2C23 538.3 46 538.7 69 538.3C92 538 115 537 138.2 537.7C161.3 538.3 184.7 540.7 207.8 539.3C231 538 254 533 277 532.5C300 532 323 536 346 538.2C369 540.3 392 540.7 415.2 540.7C438.3 540.7 461.7 540.3 484.8 539.2C508 538 531 536 554 535.7C577 535.3 600 536.7 623 536.5C646 536.3 669 534.7 692.2 534.7C715.3 534.7 738.7 536.3 761.8 537.8C785 539.3 808 540.7 831 542.5C854 544.3 877 546.7 888.5 547.8L900 549L900 601L888.5 601C877 601 854 601 831 601C808 601 785 601 761.8 601C738.7 601 715.3 601 692.2 601C669 601 646 601 623 601C600 601 577 601 554 601C531 601 508 601 484.8 601C461.7 601 438.3 601 415.2 601C392 601 369 601 346 601C323 601 300 601 277 601C254 601 231 601 207.8 601C184.7 601 161.3 601 138.2 601C115 601 92 601 69 601C46 601 23 601 11.5 601L0 601Z" fill="#dbc5a6"></path></svg>